<?xml version="1.0" encoding="utf-8"?>
<!-- Generator: Adobe Illustrator 27.1.0, SVG Export Plug-In . SVG Version: 6.00 Build 0)  -->
<svg version="1.1" id="Layer_1" xmlns="http://www.w3.org/2000/svg" xmlns:xlink="http://www.w3.org/1999/xlink" x="0px" y="0px"
	 viewBox="0 0 255.12 107.54" style="enable-background:new 0 0 255.12 107.54;" xml:space="preserve">
<g>
	<path d="M97.38,107.54h-11.2c-1.22,0-2.2-0.99-2.2-2.2V34.29c0-1.21,0.99-2.2,2.2-2.2h11.2c1.21,0,2.2,0.99,2.2,2.2v71.05
		C99.58,106.55,98.6,107.54,97.38,107.54"/>
	<path d="M245.75,9.23c1.29,0,2.33-0.19,2.33-1.73c0-1.35-1.24-1.61-2.31-1.61h-2.23v3.33H245.75z M241.71,4.33h4.06
		c2.7,0,4.14,0.95,4.14,3.33c0,2.06-1.23,2.88-2.93,3.06l3.02,4.95h-2.11l-2.74-4.87h-1.6v4.87h-1.84V4.33z M245.43,18.14
		c4.35,0,7.87-3.62,7.87-8.12c0-4.49-3.51-8.12-7.87-8.12c-4.34,0-7.85,3.62-7.85,8.12C237.58,14.52,241.08,18.14,245.43,18.14
		 M245.43,0c5.35,0,9.69,4.49,9.69,10.02c0,5.53-4.34,10.02-9.69,10.02c-5.34,0-9.69-4.5-9.69-10.02C235.74,4.49,240.09,0,245.43,0"
		/>
	<path d="M129.98,107.54h-11.2c-1.22,0-2.2-0.99-2.2-2.2V34.29c0-1.21,0.98-2.2,2.2-2.2h11.2c1.22,0,2.2,0.99,2.2,2.2v71.05
		C132.18,106.55,131.2,107.54,129.98,107.54"/>
	<path d="M227,3.71v12.17c0,0.87-0.7,1.57-1.57,1.57h-31.28c-0.87,0-1.57,0.7-1.57,1.57v86.96c0,0.87-0.7,1.57-1.57,1.57h-14.1
		c-0.87,0-1.57-0.7-1.57-1.57V19.01c0-0.87-0.7-1.57-1.57-1.57h-31.18c-0.87,0-1.57-0.7-1.57-1.57V3.71c0-0.87,0.7-1.57,1.57-1.57
		h82.82C226.29,2.14,227,2.85,227,3.71"/>
	<path d="M97.38,19.41h-11.2c-1.22,0-2.2-0.99-2.2-2.2V4.35c0-1.22,0.99-2.2,2.2-2.2h11.2c1.21,0,2.2,0.99,2.2,2.2v12.86
		C99.58,18.42,98.6,19.41,97.38,19.41"/>
	<path d="M129.98,19.41h-11.2c-1.22,0-2.2-0.99-2.2-2.2V4.35c0-1.22,0.98-2.2,2.2-2.2h11.2c1.22,0,2.2,0.99,2.2,2.2v12.86
		C132.18,18.42,131.2,19.41,129.98,19.41"/>
	<path d="M72.88,93.82v12.15c0,0.87-0.7,1.57-1.57,1.57H1.57c-0.87,0-1.57-0.7-1.57-1.57V3.71c0-0.87,0.7-1.57,1.57-1.57h14.09
		c0.87,0,1.57,0.7,1.57,1.57v86.97c0,0.87,0.7,1.57,1.57,1.57h52.51C72.18,92.25,72.88,92.95,72.88,93.82"/>
</g>
</svg>
